<svg xmlns="http://www.w3.org/2000/svg" viewBox="0 0 32 32" width="32" height="32">
  <defs>
    <linearGradient id="azureGradient" x1="0%" y1="0%" x2="100%" y2="100%">
      <stop offset="0%" style="stop-color:#0078d4;stop-opacity:1" />
      <stop offset="50%" style="stop-color:#106ebe;stop-opacity:1" />
      <stop offset="100%" style="stop-color:#005a9e;stop-opacity:1" />
    </linearGradient>
  </defs>
  
  <!-- Background circle -->
  <circle cx="16" cy="16" r="15" fill="url(#azureGradient)" stroke="#ffffff" stroke-width="1"/>
  
  <!-- Azure cloud icon -->
  <path d="M8 12c0-2.2 1.8-4 4-4s4 1.8 4 4c1.1 0 2 .9 2 2s-.9 2-2 2h-8c-1.1 0-2-.9-2-2s.9-2 2-2z" fill="#ffffff" opacity="0.9"/>
  
  <!-- Resource blocks -->
  <rect x="10" y="18" width="3" height="3" fill="#ffffff" opacity="0.8" rx="0.5"/>
  <rect x="14" y="18" width="3" height="3" fill="#ffffff" opacity="0.8" rx="0.5"/>
  <rect x="18" y="18" width="3" height="3" fill="#ffffff" opacity="0.8" rx="0.5"/>
  
  <!-- Connection lines -->
  <line x1="11.5" y1="21" x2="11.5" y2="23" stroke="#ffffff" stroke-width="0.5" opacity="0.6"/>
  <line x1="15.5" y1="21" x2="15.5" y2="23" stroke="#ffffff" stroke-width="0.5" opacity="0.6"/>
  <line x1="19.5" y1="21" x2="19.5" y2="23" stroke="#ffffff" stroke-width="0.5" opacity="0.6"/>
</svg>
